<svg xmlns="http://www.w3.org/2000/svg" viewBox="0 0 841.9 595.3">
  <circle cx="420.9" cy="297.6" r="200" fill="#61DAFB"/>
  <g fill="#fff">
    <path d="M420.9 157.6c-77.5 0-140.3 62.8-140.3 140.3s62.8 140.3 140.3 140.3 140.3-62.8 140.3-140.3-62.8-140.3-140.3-140.3zm0 240.3c-55.2 0-100-44.8-100-100s44.8-100 100-100 100 44.8 100 100-44.8 100-100 100z"/>
    <path d="M420.9 207.6c-27.6 0-50 22.4-50 50s22.4 50 50 50 50-22.4 50-50-22.4-50-50-50zm0 70c-11 0-20-9-20-20s9-20 20-20 20 9 20 20-9 20-20 20z"/>
  </g>
</svg>
